<svg width="941" height="653" viewBox="0 0 941 653" fill="none" xmlns="http://www.w3.org/2000/svg">
<path d="M27.1827 635.039L11.2939 610.7V610.642H14.9608L28.7545 632.018L42.6063 610.642H46.2727V610.7L30.3259 635.039V651.303H27.1827V635.039Z" fill="#265BA9" stroke="#265BA9" stroke-width="0.5" stroke-miterlimit="2.61313"/>
<path d="M104.358 631.03C104.3 641.719 97.4897 652 83.8129 652C70.135 652 63.2676 641.66 63.2676 630.914C63.2676 619.994 70.0773 610.003 83.8129 610.003C97.5478 610.003 104.416 620.052 104.358 631.03ZM66.352 630.972C66.4101 640.15 72.2304 649.096 83.8129 649.096C95.4531 649.096 101.331 640.151 101.331 630.972C101.331 621.562 95.5109 612.908 83.8129 612.908C72.1138 612.908 66.2939 621.388 66.352 630.972Z" fill="#265BA9" stroke="#265BA9" stroke-width="0.5" stroke-miterlimit="2.61313"/>
<path d="M156.044 610.642V635.909C156.044 657.169 124.848 657.227 124.848 635.909V610.642H127.932V635.909C127.932 653.394 152.959 653.335 152.959 635.909V610.642H156.044Z" fill="#265BA9" stroke="#265BA9" stroke-width="0.5" stroke-miterlimit="2.61313"/>
<path d="M210.174 651.303H206.041L191.956 635.909H180.84V651.303H177.697V610.642C183.692 610.642 189.628 610.642 195.623 610.642C204.47 610.642 208.951 616.972 209.01 623.304C209.068 629.926 204.703 635.735 195.798 635.735L210.174 651.302L210.174 651.303ZM180.84 632.947H195.274C202.375 632.947 205.517 628.939 205.576 623.247C205.634 618.484 202.375 613.547 195.623 613.547H180.84V632.948V632.947Z" fill="#265BA9" stroke="#265BA9" stroke-width="0.5" stroke-miterlimit="2.61313"/>
<path d="M291.659 630.507C291.892 640.847 285.257 651.303 270.998 651.303C266.4 651.303 261.802 651.303 257.204 651.303V610.642C261.802 610.642 266.4 610.642 270.998 610.642C284.791 610.642 291.426 620.516 291.659 630.507V630.507ZM260.347 613.604V648.282H270.998C283.103 648.282 288.691 639.221 288.516 630.507C288.342 622.027 282.755 613.604 270.998 613.604H260.347Z" fill="#265BA9" stroke="#265BA9" stroke-width="0.5" stroke-miterlimit="2.61313"/>
<path d="M312.498 651.303V610.642H315.582V651.303H312.498Z" fill="#265BA9" stroke="#265BA9" stroke-width="0.5" stroke-miterlimit="2.61313"/>
<path d="M369.65 618.137C366.099 614.652 361.152 612.909 356.554 612.909C344.623 612.909 338.512 621.622 338.57 631.032C338.57 640.617 344.681 648.865 356.554 648.865C360.919 648.865 365.459 647.354 368.951 644.16V632.774H354.75V630.045H371.92V645.263C367.671 649.503 362.607 651.827 356.554 651.827C342.702 651.827 335.543 642.184 335.543 631.09C335.486 618.369 344.157 610.062 356.554 610.062C361.909 610.062 367.321 612.096 371.454 616.162L369.65 618.137V618.137Z" fill="#265BA9" stroke="#265BA9" stroke-width="0.5" stroke-miterlimit="2.61313"/>
<path d="M393.511 651.303V610.642H396.596V651.303H393.511Z" fill="#265BA9" stroke="#265BA9" stroke-width="0.5" stroke-miterlimit="2.61313"/>
<path d="M432.047 613.489H417.321V610.701H449.914V613.489H435.19V651.304H432.047V613.489Z" fill="#265BA9" stroke="#265BA9" stroke-width="0.5" stroke-miterlimit="2.61313"/>
<path d="M501.307 651.303L496.824 641.312H472.496L468.073 651.303H464.697L482.973 610.642H486.408L504.682 651.303H501.307H501.307ZM495.602 638.407L484.66 613.662L473.719 638.407H495.602Z" fill="#265BA9" stroke="#265BA9" stroke-width="0.5" stroke-miterlimit="2.61313"/>
<path d="M526.683 610.642V648.34H549.614V651.303H523.54V610.642H526.683Z" fill="#265BA9" stroke="#265BA9" stroke-width="0.5" stroke-miterlimit="2.61313"/>
<path d="M600.771 637.245V651.303H597.628V610.642C603.564 610.642 609.559 610.642 615.494 610.642C633.188 610.642 633.188 637.245 615.494 637.245H600.771V637.245ZM600.771 613.546V634.4H615.494C629.056 634.4 629.056 613.546 615.494 613.546H600.771Z" fill="#265BA9" stroke="#265BA9" stroke-width="0.5" stroke-miterlimit="2.61313"/>
<path d="M681.156 651.303L676.674 641.312H652.345L647.924 651.303H644.547L662.823 610.642H666.256L684.532 651.303H681.156H681.156ZM675.453 638.407L664.511 613.662L653.567 638.407H675.453Z" fill="#265BA9" stroke="#265BA9" stroke-width="0.5" stroke-miterlimit="2.61313"/>
<path d="M735.283 651.303H731.15L717.066 635.909H705.95V651.303H702.807V610.642C708.801 610.642 714.737 610.642 720.732 610.642C729.58 610.642 734.061 616.972 734.12 623.304C734.176 629.926 729.811 635.735 720.907 635.735L735.283 651.302L735.283 651.303ZM705.95 632.947H720.383C727.484 632.947 730.627 628.939 730.685 623.247C730.743 618.484 727.484 613.547 720.732 613.547H705.95V632.948V632.947Z" fill="#265BA9" stroke="#265BA9" stroke-width="0.5" stroke-miterlimit="2.61313"/>
<path d="M766.942 613.489H752.217V610.701H784.81V613.489H770.085V651.304H766.942V613.489Z" fill="#265BA9" stroke="#265BA9" stroke-width="0.5" stroke-miterlimit="2.61313"/>
<path d="M805.181 610.642L832.595 644.274V610.642H835.68V651.303H834.457L806.987 617.728V651.303H803.844V610.642H805.181Z" fill="#265BA9" stroke="#265BA9" stroke-width="0.5" stroke-miterlimit="2.61313"/>
<path d="M860.881 629.404H884.745V632.25H860.881V648.282H886.607V651.303H857.797V610.642H885.908V613.604H860.881V629.404Z" fill="#265BA9" stroke="#265BA9" stroke-width="0.5" stroke-miterlimit="2.61313"/>
<path d="M939.108 651.303H934.976L920.891 635.909H909.775V651.303H906.632V610.642C912.626 610.642 918.562 610.642 924.557 610.642C933.406 610.642 937.886 616.972 937.945 623.304C938.001 629.926 933.636 635.735 924.732 635.735L939.108 651.302L939.108 651.303ZM909.775 632.947H924.208C931.31 632.947 934.453 628.939 934.51 623.247C934.569 618.484 931.31 613.547 924.557 613.547H909.775V632.948V632.947Z" fill="#265BA9" stroke="#265BA9" stroke-width="0.5" stroke-miterlimit="2.61313"/>
<path d="M105.863 3.59909L254.237 408.763L287.557 314.093L177.692 0L105.863 3.59909Z" fill="#265BA9"/>
<path d="M345.042 0L273.215 3.59909L421.59 408.763L454.909 314.093L345.042 0Z" fill="#265BA9"/>
<path d="M766.309 177.636C784.451 158.121 794.716 131.674 794.716 103.851C794.716 87.9539 791.474 72.6798 785.081 58.4545C770.799 26.6688 743.651 6.04641 710.595 1.87592C706.705 1.3851 702.876 1.13641 699.212 1.13641C698.086 1.13641 696.55 0.922722 694.922 0.697005C692.889 0.415495 690.786 0.123047 688.702 0.123047C688.045 0.123047 687.433 0.15149 686.846 0.210198H498.935L485.944 101.164C491.451 99.3171 529.88 86.767 542.65 91.6835C544.583 92.4285 547.003 97.1963 541.675 99.8976C536.347 102.598 458.511 148.914 508.664 190.389C514.02 192.135 560.323 209.832 581.292 155.118C602.26 100.406 598.797 94.4421 628.893 96.3397C661.985 98.4263 666.407 122.438 672.976 142.094C679.541 161.751 710.09 180.916 716.934 179.505C723.779 178.094 735.376 202.234 717.828 223.478C700.28 244.725 680.613 255.723 648.111 252.986C616.632 250.336 537.987 233.024 464.005 316.195L461.542 324.236L440.047 391.362H722.318C748.121 391.313 772.557 378.693 791.124 355.828C808.87 333.977 819.048 304.768 819.048 275.69C819.048 233.93 798.593 196.366 766.308 177.636H766.309Z" fill="#265BA9"/>
<path d="M651.383 147.946C651.817 144.306 649.21 140.999 645.561 140.568C641.912 140.135 638.604 142.742 638.172 146.382C637.738 150.018 640.345 153.323 643.992 153.755C647.644 154.187 650.952 151.581 651.383 147.946Z" fill="#265BA9"/>
<path d="M844.142 446.547H820.102V473.714C845.932 473.516 844.142 446.547 844.142 446.547ZM243.171 572.915H267.486V479.309H243.171V572.915ZM272.699 497.337H284.682V554.886C284.682 569.566 292.611 576.902 308.478 576.902C313.918 576.902 318.607 576.265 322.544 574.995V558.008C320.112 558.354 318.259 558.528 316.988 558.528C313.745 558.528 311.602 557.864 310.56 556.533C309.519 555.206 308.997 552.46 308.997 548.302V497.337H322.544V481.216H272.699V497.337ZM308.723 446.547H284.682V473.714C310.511 473.516 308.723 446.547 308.723 446.547ZM102.138 544.834L88.0684 479.309H63.7543L49.5105 544.834L34.5739 479.309H0L11.0629 485.243L35.7913 572.914H60.8007L75.7373 506.871L89.8061 572.914H114.99L141.564 479.309H116.38L102.139 544.834L102.138 544.834ZM218.595 484.076C215.41 481.822 212.168 480.205 208.869 479.222C205.567 478.243 202.065 477.749 198.361 477.749C186.781 477.749 177.632 482.775 170.918 492.829V446.547H137.214L146.604 452.481V572.915H170.918V516.752C170.918 511.438 172.683 507.046 176.216 503.578C179.747 500.11 184.233 498.378 189.676 498.378C199.633 498.378 204.612 504.159 204.612 515.714V572.915H228.929V510.166C228.929 504.041 228.002 498.724 226.149 494.218C224.297 489.71 221.778 486.331 218.595 484.077L218.595 484.076ZM267.211 446.547H243.172V473.714C269.001 473.516 267.211 446.547 267.211 446.547ZM774.296 477.749C762.252 477.749 752.874 482.775 746.16 492.829V479.309H712.453L721.843 485.243V572.914H746.16V516.751C746.16 511.205 747.953 506.758 751.544 503.405C755.13 500.054 759.879 498.377 765.786 498.377C776.207 498.377 781.417 503.984 781.417 515.191V572.914H805.734V510.165C805.734 499.88 802.982 491.906 797.482 486.243C791.982 480.582 784.252 477.749 774.295 477.749L774.296 477.749ZM819.976 572.915H844.293V479.309H819.976V572.915ZM403.223 493.439C400.271 489.683 396.797 486.59 392.8 484.163C388.806 481.736 384.9 480.062 381.078 479.137C377.256 478.213 373.318 477.749 369.268 477.749C355.834 477.749 345.239 482.286 337.483 491.356C329.724 500.429 325.846 512.824 325.846 528.54C325.846 543.564 329.668 555.382 337.309 563.989C344.952 572.599 355.43 576.902 368.746 576.902C379.282 576.902 388.487 574.157 396.363 568.669C404.234 563.182 409.502 555.815 412.169 546.568H388.199C385.072 554.428 378.878 558.354 369.616 558.354C365.677 558.354 362.408 557.692 359.801 556.361C357.196 555.034 355.227 553.126 353.896 550.641C352.564 548.158 351.638 545.615 351.118 543.013C350.596 540.413 350.275 537.323 350.163 533.738H413.035C413.15 532.354 413.21 530.968 413.21 529.58C413.21 521.606 412.281 514.528 410.431 508.345C408.577 502.163 406.174 497.194 403.223 493.439H403.223ZM350.51 517.62C352.129 503.406 358.266 496.298 368.921 496.298C374.592 496.298 379.021 498.147 382.208 501.844C385.391 505.545 387.272 510.801 387.852 517.62H350.51H350.51ZM940.863 529.58C940.863 521.606 939.932 514.528 938.083 508.345C936.229 502.163 933.826 497.194 930.875 493.439C927.923 489.683 924.448 486.59 920.452 484.163C916.458 481.736 912.552 480.062 908.73 479.137C904.908 478.213 900.971 477.749 896.92 477.749C883.486 477.749 872.891 482.286 865.135 491.356C857.377 500.429 853.498 512.824 853.498 528.54C853.498 543.564 857.32 555.382 864.961 563.989C872.604 572.599 883.082 576.902 896.398 576.902C906.934 576.902 916.139 574.157 924.015 568.669C931.886 563.182 937.154 555.815 939.82 546.568H915.852C912.724 554.428 906.53 558.354 897.267 558.354C893.329 558.354 890.06 557.692 887.453 556.361C884.848 555.034 882.879 553.126 881.549 550.641C880.216 548.158 879.29 545.615 878.77 543.013C878.248 540.413 877.928 537.323 877.815 533.738H940.687C940.802 532.354 940.862 530.968 940.862 529.58H940.863ZM878.162 517.62C879.781 503.406 885.918 496.298 896.573 496.298C902.244 496.298 906.673 498.147 909.86 501.844C913.043 505.545 914.923 510.801 915.504 517.62H878.162H878.162ZM676.859 477.75C664.814 477.75 655.437 482.776 648.723 492.83V479.31H615.016L624.406 485.243V572.915H648.723V516.752C648.723 511.206 650.516 506.758 654.107 503.406C657.693 500.055 662.442 498.377 668.349 498.377C678.77 498.377 683.979 503.984 683.979 515.192V572.915H708.296V510.166C708.296 499.881 705.544 491.907 700.045 486.243C694.545 480.582 686.815 477.749 676.858 477.749L676.859 477.75ZM473.823 477.75C462.362 477.75 453.734 482.316 447.946 491.444V446.547H414.24L423.631 452.481V572.915H447.946V563.381C453.735 572.397 462.362 576.903 473.823 576.903C485.054 576.903 494.433 572.166 501.962 562.687C509.486 553.213 513.251 541.427 513.251 527.327C513.251 512.882 509.486 501.009 501.962 491.705C494.433 482.404 485.054 477.75 473.823 477.75V477.75ZM483.204 548.474C479.382 553.907 474.459 556.621 468.44 556.621C462.301 556.621 457.353 553.907 453.592 548.474C449.826 543.044 447.946 535.879 447.946 526.978C447.946 518.429 449.857 511.465 453.677 506.093C457.498 500.719 462.418 498.032 468.44 498.032C474.459 498.032 479.382 500.777 483.203 506.265C487.025 511.756 488.934 518.832 488.934 527.5C488.934 536.053 487.025 543.044 483.203 548.474H483.204ZM582.203 537.9C582.203 543.448 580.406 547.898 576.819 551.249C573.228 554.601 568.481 556.275 562.576 556.275C552.155 556.275 546.944 550.67 546.944 539.46V479.31H513.239L522.63 485.243V544.488C522.63 554.775 525.378 562.747 530.879 568.409C536.377 574.07 544.107 576.903 554.065 576.903C566.108 576.903 575.486 571.875 582.204 561.823V572.915H606.518V479.31H582.204V537.9H582.203Z" fill="#265BA9"/>
</svg>
